HIERARCHY
ROOT HipCenter
{
    OFFSET 0.0 0.0 -0.0
    CHANNELS 6 Xposition Yposition Zposition Zrotation Xrotation Yrotation
    JOINT Spine
    {
        OFFSET 0.0 7.563442230224609 0.0
        CHANNELS 3 Zrotation Xrotation Yrotation
        JOINT ShoulderCenter
        {
            OFFSET 0.0 34.93376159667969 0.0
            CHANNELS 3 Zrotation Xrotation Yrotation
            JOINT LeftShoulder
            {
                OFFSET 21.235095977783203 0.0 0.0
                CHANNELS 3 Zrotation Xrotation Yrotation
                JOINT LeftElbow
                {
                    OFFSET 26.436767578125 0.0 0.0
                    CHANNELS 3 Zrotation Xrotation Yrotation
                    JOINT LeftWrist
                    {
                        OFFSET 24.92226791381836 0.0 0.0
                        CHANNELS 3 Zrotation Xrotation Yrotation
                        JOINT LeftHand
                        {
                            OFFSET 9.39400577545166 0.0 0.0
                            CHANNELS 3 Zrotation Xrotation Yrotation
                            End Site
                            {
                                OFFSET 3.7576022148132324 0.0 0.0
                            }
                        }
                    }
                }
            }
            JOINT RightShoulder
            {
                OFFSET -21.235095977783203 0.0 0.0
                CHANNELS 3 Zrotation Xrotation Yrotation
                JOINT RightElbow
                {
                    OFFSET -26.436767578125 0.0 0.0
                    CHANNELS 3 Zrotation Xrotation Yrotation
                    JOINT RightWrist
                    {
                        OFFSET -24.92226791381836 0.0 0.0
                        CHANNELS 3 Zrotation Xrotation Yrotation
                        JOINT RightHand
                        {
                            OFFSET -9.39400577545166 0.0 0.0
                            CHANNELS 3 Zrotation Xrotation Yrotation
                            End Site
                            {
                                OFFSET -3.7576022148132324 0.0 0.0
                            }
                        }
                    }
                }
            }
            End Site
            {
                OFFSET 0.0 13.973504066467285 0.0
            }
        }
    }
    JOINT LeftHip
    {
        OFFSET 11.572842597961426 0.0 0.0
        CHANNELS 3 Zrotation Xrotation Yrotation
        JOINT LeftKnee
        {
            OFFSET 0.0 -50.044334411621094 0.0
            CHANNELS 3 Zrotation Xrotation Yrotation
            JOINT LeftAnkle
            {
                OFFSET 0.0 -34.21536636352539 0.0
                CHANNELS 3 Zrotation Xrotation Yrotation
                JOINT LeftFoot
                {
                    OFFSET 0.0 -9.181331634521484 0.0
                    CHANNELS 3 Zrotation Xrotation Yrotation
                    End Site
                    {
                        OFFSET 0.0 0.0 3.672532558441162
                    }
                }
            }
        }
    }
    JOINT RightHip
    {
        OFFSET -11.572842597961426 0.0 0.0
        CHANNELS 3 Zrotation Xrotation Yrotation
        JOINT RightKnee
        {
            OFFSET 0.0 -50.044334411621094 0.0
            CHANNELS 3 Zrotation Xrotation Yrotation
            JOINT RightAnkle
            {
                OFFSET 0.0 -34.21536636352539 0.0
                CHANNELS 3 Zrotation Xrotation Yrotation
                JOINT RightFoot
                {
                    OFFSET 0.0 -9.181331634521484 0.0
                    CHANNELS 3 Zrotation Xrotation Yrotation
                    End Site
                    {
                        OFFSET 0.0 0.0 3.672532558441162
                    }
                }
            }
        }
    }
}
MOTION
Frames: 4
Frame Time: 0.03333333333333333
-8.576000213623047 -3.6602001190185547 -284.19720458984375 2.189384347024568 -37.605960348110244 -176.14276547270117 -2.074719945020572 -40.01751946884437 -0.4998274180341849 7.432234942198441e-08 2.5075551106496507e-07 -3.1268186982554647 -71.54645911234861 -63.02161181122781 6.5511382722993705 -6.404435676846121e-06 3.2926082364165626e-06 15.233349494490199 5.9044193282434275e-06 -42.71773315226434 4.504792999574802 0.0 0.0 6.3611093629270335e-15 74.03111451350765 -57.095923679232676 -3.560647406199932 -5.308631870436248e-06 -4.988532846373357e-07 -17.34986017383061 -1.2996292807901901e-05 -70.3445086934264 -7.705210587276703 -6.3611093629270335e-15 -3.1805546814635168e-15 -3.1805546814635168e-15 -3.2016966496572508 -48.350611027963936 14.723660814475044 0.23768625608438637 3.5863502783822687 -3.2114258279948675 39.19435007730858 15.485010954734395 -59.280563279720944 3.1805546814635168e-15 4.4139062980501586e-32 1.5902773407317584e-15 -1.5191173995856893 -46.99583051077668 -15.25556977263038 1.7684765533791393 2.211866090041324 1.9410071979975791 -42.271477782328716 46.812217195966326 81.1459400892826 3.1805546814635176e-15 6.361109362927035e-15 -1.2921003393445542e-15
-8.555000305175781 -3.673099994659424 -284.2027893066406 2.143012544260418 -37.60290517354758 -176.16530308617678 -2.0977981742754404 -40.091072751235124 -0.510922351223315 5.822415629288813e-08 2.196423116520087e-07 -3.1456054847776698 -71.38031192973637 -63.176901008275685 6.763944266550032 7.576280857026783e-07 -2.061192040686059e-06 15.087440335301878 1.7271472748188012e-06 -45.147023271970966 4.6538730144741915 8.827812596100317e-32 -3.180554681463516e-15 3.180554681463516e-15 73.89602782288843 -57.15997712034481 -3.6939781547977546 -3.544420123287865e-07 -1.7781576026159216e-06 -17.36440337922688 -1.4261249776290525e-05 -70.86347073175718 -7.646095502837264 -6.361109362927033e-15 3.180554681463516e-15 6.361109362927033e-15 -3.230480882320796 -48.34534786050742 14.715736462421065 0.24083584058038357 3.6025075279135237 -3.224049885000037 39.06039966646214 15.641897089675158 -59.103493769227796 1.7655625192200634e-31 3.1805546814635168e-15 -6.3611093629270335e-15 -1.5601587326973247 -46.9907630977592 -15.298522280640308 1.7655266623184922 2.221746561832697 1.951124995591276 -42.0552981730226 46.75657213883411 80.87300597587 0.0 0.0 7.056855699497178e-15
-8.53480052947998 -3.6894001960754395 -284.2076110839844 2.09417002273449 -37.51747202727988 -176.1935954288892 -2.0222486000683872 -40.358364344107535 -0.4711129775551073 4.0581995042112176e-08 -6.524762300033998e-09 -3.1337085287462814 -71.04438026218783 -62.977956894570966 7.232406492747361 -5.854774326930877e-06 1.4859955895539716e-06 15.047490062590255 -1.5475397073255158e-06 -46.32999935949181 4.769064927846567 -8.827812596100317e-32 3.1805546814635164e-15 3.1805546814635164e-15 73.32167779782802 -57.244292949626086 -4.269710936167646 -4.439441403619243e-06 4.716236394274557e-07 -17.333234730805135 -3.841471024846839e-06 -70.4675439286076 -7.568638674597819 8.827812596100317e-32 3.1805546814635168e-15 -3.1805546814635168e-15 -3.252909698823579 -48.25617965341143 14.68122407807061 0.25066779800183625 3.6217284724816463 -3.2407701267129765 38.89286745033138 15.75209848943296 -58.79690768449462 -1.5902773407317584e-15 1.1034765745125397e-32 -7.951386703658792e-16 -1.589285676003836 -46.90306291867763 -15.320451922913822 1.7674712582793046 2.228855143712652 1.9587828283865807 -41.88806105410479 46.71742622564611 80.66789305727447 -9.379550883356588e-32 6.3611093629270335e-15 1.6896696745274934e-15
-8.515799522399902 -3.709099769592285 -284.2113952636719 2.0130883250093285 -37.333431895093696 -176.24106229214038 -1.9770791263502336 -40.6565368910024 -0.44282216860170576 -1.0240254501541147e-07 -2.113826293786677e-07 -3.126184659648825 -70.75647785667356 -62.410858201809944 7.638598573186056 8.937390913455927e-07 -4.754123124502497e-06 15.101364354613006 -7.844548368790377e-06 -46.936148860001744 4.84431786093293 -6.3611093629270335e-15 -3.1805546814635164e-15 -6.3611093629270335e-15 72.63916626975482 -57.302811035615804 -4.932502151202212 -3.56457411432791e-06 -6.22077092365968e-06 -17.35387223934083 -8.035935862442263e-06 -69.89238946263146 -7.442923567337551 -1.7655625192200634e-31 -6.3611093629270335e-15 -3.1805546814635168e-15 -3.2928414792660563 -48.06871087028662 14.628859682733044 0.2633764771753678 3.649235626624618 -3.2653090631711543 38.70258799924074 15.788361687681387 -58.32633105762539 0.0 0.0 -4.770832022195275e-15 -1.6370332648777475 -46.71605417586116 -15.327097078883577 1.776923299377558 2.2394676768756456 1.9692550669903175 -41.765464236852914 46.6856717854357 80.51899040823423 -3.1805546814635168e-15 7.448466877959642e-32 -2.683593012484842e-15
